<svg width="421" height="211" viewBox="0 0 421 211" fill="none" xmlns="http://www.w3.org/2000/svg">
<circle cx="46" cy="52" r="44" fill="black" fill-opacity="0.78"/>
<circle cx="46" cy="52" r="44" fill="black" fill-opacity="0.78"/>
<circle cx="44" cy="45" r="44" fill="#FCCE30"/>
<circle cx="375" cy="52" r="44" fill="black" fill-opacity="0.78"/>
<circle cx="375" cy="52" r="44" fill="black" fill-opacity="0.78"/>
<circle cx="373" cy="45" r="44" fill="#E25F16"/>
<circle cx="377" cy="160" r="44" fill="black" fill-opacity="0.78"/>
<circle cx="377" cy="160" r="44" fill="black" fill-opacity="0.78"/>
<circle cx="375" cy="153" r="44" fill="#009688"/>
<path fill-rule="evenodd" clip-rule="evenodd" d="M128.107 11.3493C133.435 9.13809 139.145 8 144.911 8V8.27328L275.39 8.27328C275.481 8.27271 275.572 8.27243 275.663 8.27243C275.754 8.27243 275.845 8.27271 275.936 8.27328H276.1V8.27461C299.833 8.512 319 28.0584 319 52.1358C319 76.2132 299.833 95.7596 276.1 95.997V96L144.911 96H142.149V95.9128C137.327 95.6083 132.582 94.5081 128.107 92.6507C122.78 90.4395 117.939 87.1985 113.861 83.1127C109.784 79.0269 106.549 74.1764 104.343 68.8381C102.136 63.4997 101 57.7782 101 52C101 46.2218 102.136 40.5003 104.343 35.1619C106.549 29.8236 109.784 24.9731 113.861 20.8873C117.939 16.8015 122.78 13.5605 128.107 11.3493Z" fill="#363636"/>
<path fill-rule="evenodd" clip-rule="evenodd" d="M128.107 3.3493C133.435 1.13809 139.145 0 144.911 0V0.273285L275.39 0.273285C275.481 0.272713 275.572 0.27243 275.663 0.27243C275.754 0.27243 275.845 0.272713 275.936 0.273285H276.1V0.274612C299.833 0.512001 319 20.0584 319 44.1358C319 68.2132 299.833 87.7596 276.1 87.997V88L144.911 88H142.149V87.9128C137.327 87.6083 132.582 86.5081 128.107 84.6507C122.78 82.4395 117.939 79.1985 113.861 75.1127C109.784 71.0269 106.549 66.1764 104.343 60.8381C102.136 55.4997 101 49.7782 101 44C101 38.2218 102.136 32.5003 104.343 27.1619C106.549 21.8236 109.784 16.9731 113.861 12.8873C117.939 8.80152 122.78 5.56051 128.107 3.3493Z" fill="#E2164B"/>
<path fill-rule="evenodd" clip-rule="evenodd" d="M29.6302 126.349C35.0605 124.138 40.8808 123 46.7585 123L46.7585 167L46.7585 211C40.8808 211 35.0605 209.862 29.6302 207.651C24.1998 205.439 19.2657 202.198 15.1095 198.113C10.9533 194.027 7.65637 189.176 5.40704 183.838C3.15771 178.5 2 172.778 2 167C2 161.222 3.15771 155.5 5.40704 150.162C7.65637 144.824 10.9533 139.973 15.1095 135.887C19.2657 131.802 24.1998 128.561 29.6302 126.349ZM275.17 211L46.8489 211L46.8489 123L275.17 123V123.274C299.409 123.457 319 143.025 319 167.136C319 191.247 299.409 210.815 275.17 210.998V211Z" fill="#0C0C0C"/>
<path fill-rule="evenodd" clip-rule="evenodd" d="M29.6302 119.349C35.0605 117.138 40.8808 116 46.7585 116L46.7585 160L46.7585 204C40.8808 204 35.0605 202.862 29.6302 200.651C24.1998 198.439 19.2657 195.198 15.1095 191.113C10.9533 187.027 7.65637 182.176 5.40704 176.838C3.15771 171.5 2 165.778 2 160C2 154.222 3.15771 148.5 5.40704 143.162C7.65637 137.824 10.9533 132.973 15.1095 128.887C19.2657 124.802 24.1998 121.561 29.6302 119.349ZM275.17 204L46.8489 204L46.8489 116L275.17 116V116.274C299.409 116.457 319 136.025 319 160.136C319 184.247 299.409 203.815 275.17 203.998V204Z" fill="#2D70FD"/>
</svg>
